Coordinates
version=1
nRows=11
nColumns=40
inDegrees=yes

Units are S.I. units (second, meters, Newtons, ...)
If the header above contains a line with 'inDegrees', this indicates whether rotational values are in degrees (yes) or radians (no).

endheader
time	pelvis_tilt	pelvis_list	pelvis_rotation	pelvis_tx	pelvis_ty	pelvis_tz	hip_flexion_r	hip_adduction_r	hip_rotation_r	knee_angle_r	knee_angle_r_beta	ankle_angle_r	subtalar_angle_r	mtp_angle_r	hip_flexion_l	hip_adduction_l	hip_rotation_l	knee_angle_l	knee_angle_l_beta	ankle_angle_l	subtalar_angle_l	mtp_angle_l	lumbar_extension	lumbar_bending	lumbar_rotation	arm_flex_r	arm_add_r	arm_rot_r	elbow_flex_r	pro_sup_r	wrist_flex_r	wrist_dev_r	arm_flex_l	arm_add_l	arm_rot_l	elbow_flex_l	pro_sup_l	wrist_flex_l	wrist_dev_l
      6.24500000	    -24.81983003	      3.66296962	      0.48572152	     -0.38987837	      0.84967861	     -0.92270124	     67.13091373	    -17.05457134	      0.18272939	     66.87917709	      1.16726184	     27.53757769	      0.00000000	      0.00000000	     66.65360828	     -6.26430512	     -1.20128281	     67.15654119	      1.17210276	     28.27837556	      0.00000000	      0.00000000	    -29.75730582	     -0.16151906	     -9.00918439	     -8.56336394	    -60.29756087	     57.06533508	    108.52603047	     87.66396090	      0.00000000	      0.00000000	    -21.51243030	    -59.66000501	     43.13381959	    101.74370162	     87.99176452	      0.00000000	      0.00000000
      6.25000000	    -24.09780212	      3.45835715	      0.43180565	     -0.38561148	      0.85464698	     -0.92267702	     65.61206893	    -17.01598235	     -0.34857729	     66.19012000	      1.15523553	     27.49356572	      0.00000000	      0.00000000	     65.33215034	     -6.34829700	     -1.08835953	     66.60716191	      1.16251428	     28.22241332	      0.00000000	      0.00000000	    -29.42531666	      0.00527490	     -8.81033088	    -10.50908123	    -60.10692284	     54.89005364	    108.71830075	     87.65769056	      0.00000000	      0.00000000	    -23.86462060	    -59.22807584	     40.29391880	    102.14118902	     87.99609733	      0.00000000	      0.00000000
      6.25500000	    -23.47659723	      3.46452710	      0.32505093	     -0.38132440	      0.85996140	     -0.92319125	     64.22880087	    -17.07661103	     -0.66572025	     65.34308393	      1.14045196	     27.19522327	      0.00000000	      0.00000000	     63.99204789	     -6.31096746	     -1.18534051	     65.87326819	      1.14970542	     27.95939704	      0.00000000	      0.00000000	    -28.93384541	      0.00371587	     -8.71135236	    -11.93833200	    -59.98014822	     53.24933132	    108.79399896	     87.67560710	      0.00000000	      0.00000000	    -25.70632660	    -58.69583980	     38.03593829	    102.36152947	     88.00688008	      0.00000000	      0.00000000
      6.26000000	    -22.69545847	      3.43730396	      0.18280215	     -0.37653246	      0.86565565	     -0.92326328	     62.60481186	    -17.07922827	     -1.06815158	     64.44735713	      1.12481858	     27.00562898	      0.00000000	      0.00000000	     62.42983410	     -6.37462627	     -1.32613626	     65.11604917	      1.13648945	     27.80660486	      0.00000000	      0.00000000	    -28.55503701	     -0.03465123	     -8.56267419	    -13.28476960	    -59.73676778	     51.76321805	    108.83844741	     87.68291197	      0.00000000	      0.00000000	    -27.42320198	    -58.27918729	     36.02563530	    102.58626720	     88.00542630	      0.00000000	      0.00000000
      6.26500000	    -21.83458541	      3.31280736	      0.09171472	     -0.37157871	      0.87188581	     -0.92335221	     60.79341922	    -17.08249383	     -1.64528287	     63.46728728	      1.10771313	     26.76112357	      0.00000000	      0.00000000	     60.74655671	     -6.48169109	     -1.45380504	     64.26286317	      1.12159855	     27.65645875	      0.00000000	      0.00000000	    -28.25423758	      0.05724271	     -8.41861605	    -14.53737903	    -59.53718992	     50.33771203	    108.92703291	     87.65599861	      0.00000000	      0.00000000	    -28.95329246	    -57.79601636	     34.21558388	    102.81104824	     88.00393069	      0.00000000	      0.00000000
      6.27000000	    -21.02438879	      3.22297018	     -0.09272420	     -0.36652541	      0.87836049	     -0.92342493	     59.01976291	    -17.00152831	     -2.13025594	     62.37842765	      1.08870894	     26.24996041	      0.00000000	      0.00000000	     59.06354926	     -6.64477300	     -1.67765972	     63.34907032	      1.10564986	     27.21528511	      0.00000000	      0.00000000	    -27.84810624	      0.07215044	     -8.20129656	    -15.52500532	    -59.29307319	     49.15674499	    108.85545808	     87.59154666	      0.00000000	      0.00000000	    -30.19026679	    -57.31152473	     32.84002630	    102.89718724	     87.98323971	      0.00000000	      0.00000000
      6.27500000	    -20.29462875	      3.27405663	     -0.25350967	     -0.36151408	      0.88489633	     -0.92345214	     57.33397169	    -17.03459989	     -2.55770220	     61.23087226	      1.06868032	     26.02894995	      0.00000000	      0.00000000	     57.39161977	     -6.70364245	     -2.02386008	     62.30120907	      1.08736123	     27.03830759	      0.00000000	      0.00000000	    -27.47931658	     -0.04837144	     -8.11060794	    -17.35446209	    -58.93035052	     47.00371165	    109.00158544	     87.61518344	      0.00000000	      0.00000000	    -32.29533001	    -56.65072037	     30.27542952	    103.35714150	     88.00446607	      0.00000000	      0.00000000
      6.28000000	    -19.54155422	      2.98247905	     -0.27807207	     -0.35676829	      0.89195990	     -0.92353491	     55.42198093	    -16.91950649	     -3.36622225	     59.89298007	      1.04532970	     25.61120676	      0.00000000	      0.00000000	     55.76494963	     -6.89273348	     -2.05194727	     61.21278274	      1.06836460	     26.59363633	      0.00000000	      0.00000000	    -27.08988420	      0.21971576	     -7.96861772	    -18.53375233	    -58.72145265	     45.54584632	    109.10125938	     87.61658576	      0.00000000	      0.00000000	    -33.65631437	    -56.17756002	     28.64534439	    103.64848531	     87.99612304	      0.00000000	      0.00000000
      6.28500000	    -18.91024430	      3.06640425	     -0.45166935	     -0.35167437	      0.89915943	     -0.92347982	     53.77566375	    -16.92535255	     -3.76677380	     58.54933265	      1.02187863	     25.05508414	      0.00000000	      0.00000000	     54.09177516	     -6.97549400	     -2.56294903	     59.96871535	      1.04665153	     25.96223752	      0.00000000	      0.00000000	    -26.56042290	      0.04384970	     -7.82137004	    -19.87362572	    -58.29123012	     44.07995895	    109.00617541	     87.63889366	      0.00000000	      0.00000000	    -35.06231819	    -55.59339414	     27.03462662	    103.90980919	     88.00971023	      0.00000000	      0.00000000
      6.29000000	    -18.16441216	      3.07474473	     -0.60920026	     -0.34653150	      0.90689922	     -0.92353865	     51.91128874	    -16.92014364	     -4.32874668	     57.05014115	      0.99571280	     24.45057010	      0.00000000	      0.00000000	     52.23954254	     -7.06295379	     -3.01604738	     58.59678103	      1.02270676	     25.46383622	      0.00000000	      0.00000000	    -26.15885369	     -0.03066431	     -7.69852406	    -21.07394374	    -57.96838534	     42.71874646	    108.98924488	     87.66652605	      0.00000000	      0.00000000	    -36.32345856	    -55.03103046	     25.58699176	    104.16562091	     88.00910361	      0.00000000	      0.00000000
      6.29500000	    -17.45488694	      3.15766829	     -0.77040324	     -0.34132123	      0.91503125	     -0.92352903	     50.04489720	    -16.95229476	     -4.88880399	     55.42129489	      0.96728407	     23.71040006	      0.00000000	      0.00000000	     50.38819914	     -7.10494100	     -3.57964104	     57.12946912	      0.99709734	     24.64119566	      0.00000000	      0.00000000	    -25.73463685	     -0.18888307	     -7.60279537	    -22.19181937	    -57.61460532	     41.38364779	    108.96124364	     87.66238324	      0.00000000	      0.00000000	    -37.53332837	    -54.60931182	     24.27685034	    104.48663407	     88.01238028	      0.00000000	      0.00000000
